# xmcd
#
# Track frame offsets:
#	150
#	9748
#	17377
#	24927
#	35727
#	44878
#	53586
#	65368
#	69962
#	78650
#	87078
#	95220
#
# Disc length: 1417 seconds
#
# Revision: 0
# Processed by: cddbd v1.5.2PL0 Copyright (c) Steve Scherf et al.
# Submitted via: EasyCDDAExtractor 12.0.1.1
#
DISCID=9505870c
DTITLE=Roger Miller
DYEAR=2000
DGENRE=Country
TTITLE0=Chug-A-Lug
TTITLE1=Dang Me
TTITLE2=Do-Wacka-Do
TTITLE3=King Of The Road
TTITLE4=One Dyin' And A Buryin'
TTITLE5=You Can't Roller Skate In A Bu
TTITLE6=Walking In The Sunshine
TTITLE7=Robin Hood
TTITLE8=England Swings
TTITLE9=Dang Me
TTITLE10=Do-Wacka-Do
TTITLE11=King Of The Road
EXTD=
EXTT0=
EXTT1=
EXTT2=
EXTT3=
EXTT4=
EXTT5=
EXTT6=
EXTT7=
EXTT8=
EXTT9=
EXTT10=
EXTT11=
PLAYORDER=
